<svg width="22" height="22" fill="none" xmlns="http://www.w3.org/2000/svg"><path d="M10.95 2.55c2.75 0 3.05 0 4.15.05 1 .05 1.55.2 1.9.35.45.15.85.45 1.2.75.35.35.6.75.75 1.2.15.35.3.9.35 1.9.05 1.1.05 1.4.05 4.15 0 2.75 0 3.05-.05 4.15-.05 1-.2 1.55-.35 1.9-.35.9-1.05 1.6-1.95 1.95-.35.15-.9.3-1.9.35-1.1.05-1.4.05-4.15.05-2.75 0-3.05 0-4.15-.05-1-.05-1.55-.2-1.9-.35-.45-.15-.85-.45-1.2-.75-.35-.35-.6-.75-.75-1.2-.15-.35-.3-.9-.35-1.9-.05-1.1-.05-1.4-.05-4.15 0-2.75 0-3.05.05-4.15.05-1 .2-1.55.35-1.9.15-.45.45-.85.75-1.2.35-.35.75-.6 1.2-.75.35-.15.9-.3 1.9-.35 1.1-.05 1.45-.05 4.15-.05Zm0-1.85C8.15.7 7.8.7 6.7.75s-1.85.2-2.5.5c-.65.25-1.25.65-1.75 1.15-.5.5-.95 1.15-1.2 1.8C1 4.85.8 5.6.75 6.7.7 7.8.7 8.15.7 10.95s0 3.15.05 4.25.2 1.85.5 2.5c.25.65.65 1.3 1.2 1.8.5.5 1.15.95 1.8 1.2.65.25 1.4.45 2.5.5 1.1.05 1.45.05 4.25.05s3.15 0 4.25-.05 1.85-.2 2.5-.5c1.4-.55 2.45-1.6 3-3 .25-.65.45-1.4.5-2.5.05-1.1.05-1.45.05-4.25s0-3.15-.05-4.25-.2-1.85-.5-2.5c-.25-.7-.65-1.3-1.2-1.8-.5-.5-1.15-.95-1.8-1.2-.65-.25-1.4-.45-2.5-.5h-4.3Z" fill="#fff"/><path d="M10.95 5.7a5.25 5.25 0 0 0-5.25 5.25 5.25 5.25 0 1 0 10.5 0c.05-2.9-2.3-5.25-5.25-5.25Zm0 8.7c-1.9 0-3.4-1.55-3.4-3.4 0-1.9 1.55-3.4 3.4-3.4 1.9 0 3.4 1.55 3.4 3.4.05 1.85-1.5 3.4-3.4 3.4Zm5.5-7.65a1.25 1.25 0 1 0 0-2.5 1.25 1.25 0 0 0 0 2.5Z" fill="#fff"/></svg>