<svg fill="none" xmlns="http://www.w3.org/2000/svg" viewBox="0 0 204 459"><g clip-path="url(#logo 1__a)"><mask id="logo 1__b" style="mask-type:luminance" maskUnits="userSpaceOnUse" x="0" y="0" width="204" height="459"><path d="M0 0h204v459H0V0Z" fill="#fff"/></mask><g mask="url(#logo 1__b)"><path d="M135.993 83.468h40.8v23.795l-20.852 15.587 20.852 15.566v88.33l-13.882 10.363.282-104.124-13.6-10.139 13.6-10.156V87.25h-13.6v93.57h-13.6V83.468ZM136 189.39v97.349h40.8v-49.293l-13.6 10.146v35.419h-13.6V189.39H136Zm-95.2 39.507v-79.573L27.2 159.47v127.269h13.6v-57.842Zm13.6 14.858v42.984H68V189.39H54.4v54.365Zm81.593 51.557h40.8v23.774l-20.852 15.566 20.852 15.587v42.425h-40.8v-97.352Zm13.6 93.569h13.6v-44.069l-13.6-10.139 13.6-10.156v-25.423h-13.6v89.787ZM190.4 411.41l13.6 10.139V459H0v-37.451l13.6-10.139v.02l13.6-10.139h149.6l13.6 10.139v-.02Zm-136-82.644v-29.723H40.8v29.168l-13.6 10.146v-43.042H68v97.349H27.2v-43.613l13.6-10.146 13.6-10.139Zm0 4.715-13.6 10.153v45.244h13.6v-55.397Zm68-250.013h-13.6v93.566H95.2v-68.351l-13.6 10.146v61.985h40.8V83.468Zm-54.4 0H27.2v65.311l13.6-10.145V87.251h13.6v93.566H68V87.251h13.6v20.884l13.6-10.146V83.465H68v.003Zm13.6 211.847v97.349h40.8v-68.215l-13.6 10.207v54.222H95.2v-93.563H81.6Zm40.8-105.925h-13.6v93.621H95.2V189.39H81.6v97.349h40.8V189.39ZM202.752 0v55.608l-13.6 10.139-7.289 5.41-5.063 3.782H27.2l-5.08-3.782-7.272-5.427v.02l-13.6-10.139V0h53.06v33.685h13.695V0h68v33.685h13.6V0h53.149ZM40.8 203.111l13.6 26.409v8.754l-13.6-26.386v-8.777Z" fill="#fff"/></g></g><defs><clipPath id="logo 1__a"><path fill="#fff" d="M0 0h204v459H0z"/></clipPath></defs></svg>