<svg fill="none" xmlns="http://www.w3.org/2000/svg" viewBox="0 0 34 35"><path d="m18.151 1.167.807 4.836a11.264 11.264 0 0 0 9.154 9.155l4.837.806c.518.115.978.575.978 1.151 0 .576-.46 1.037-.978 1.152l-4.837.806a11.264 11.264 0 0 0-9.154 9.154l-.806 4.837c-.116.518-.576.978-1.152.978s-1.036-.46-1.152-.978l-.806-4.837a11.264 11.264 0 0 0-9.154-9.154l-4.836-.806c-.519-.116-.98-.576-.98-1.152s.461-1.036.98-1.151l4.836-.806a11.264 11.264 0 0 0 9.155-9.155l.806-4.836c.115-.576.575-.98 1.151-.98.576 0 1.036.404 1.151.98Z" fill="#292433"/></svg>